<svg height="520" style="background-color: white;" viewBox="0 0 480 520" width="480" xmlns="http://www.w3.org/2000/svg">
<style>
.labels{fill:rgb(0,0,0);font-size:10;font-family:Arial}
.title{font-family:Arial;font-size:12;text-anchor:middle;}
.legend{font-family:Arial;font-size:12pt;text-anchor:left;}
.wedge-0{fill:#408040;stroke-width:0}
.wedge-1{fill:#804052;stroke-width:0}
.wedge-2{fill:#406580;stroke-width:0}
.wedge-3{fill:#778040;stroke-width:0}
.wedge-4{fill:#754080;stroke-width:0}
</style>
<g>
<path class="wedge-0" d="M240,240 L240,40 A200,200,0,0,1,292.83908,47.106167 z"/>
<path class="wedge-1" d="M240,240 L292.83908,47.106167 A200,200,0,1,1,58.581818,324.18695 z"/>
<path class="wedge-2" d="M240,240 L58.581818,324.18695 A200,200,0,0,1,138.07668,67.919685 z"/>
<path class="wedge-3" d="M240,240 L138.07668,67.919685 A200,200,0,0,1,187.16092,47.106167 z"/>
<path class="wedge-4" d="M240,240 L187.16092,47.106167 A200,200,0,0,1,240,40 z"/>
</g>
<text class="title" x="240" y="20">
Grades
</text>
<g>
<rect class="wedge-0" height="20" rx="3" ry="3" width="20" x="10" y="450"/>
<text class="legend" x="10" y="490">
A (4%)
</text>
<rect class="wedge-1" height="20" rx="3" ry="3" width="20" x="102" y="450"/>
<text class="legend" x="102" y="490">
B (64%)
</text>
<rect class="wedge-2" height="20" rx="3" ry="3" width="20" x="194" y="450"/>
<text class="legend" x="194" y="490">
C (23%)
</text>
<rect class="wedge-3" height="20" rx="3" ry="3" width="20" x="286" y="450"/>
<text class="legend" x="286" y="490">
D (4%)
</text>
<rect class="wedge-4" height="20" rx="3" ry="3" width="20" x="378" y="450"/>
<text class="legend" x="378" y="490">
F (4%)
</text>
</g>
</svg>